<svg id="visual" viewBox="0 0 960 540" width="960" height="540" xmlns="http://www.w3.org/2000/svg" xmlns:xlink="http://www.w3.org/1999/xlink" version="1.1"><rect x="0" y="0" width="960" height="540" fill="#001122"></rect><defs><linearGradient id="grad1_0" x1="43.8%" y1="0%" x2="100%" y2="100%"><stop offset="14.444444444444446%" stop-color="#509c1d" stop-opacity="1"></stop><stop offset="85.55555555555554%" stop-color="#509c1d" stop-opacity="1"></stop></linearGradient></defs><defs><linearGradient id="grad1_1" x1="43.8%" y1="0%" x2="100%" y2="100%"><stop offset="14.444444444444446%" stop-color="#509c1d" stop-opacity="1"></stop><stop offset="85.55555555555554%" stop-color="#007d4f" stop-opacity="1"></stop></linearGradient></defs><defs><linearGradient id="grad1_2" x1="43.8%" y1="0%" x2="100%" y2="100%"><stop offset="14.444444444444446%" stop-color="#00585e" stop-opacity="1"></stop><stop offset="85.55555555555554%" stop-color="#007d4f" stop-opacity="1"></stop></linearGradient></defs><defs><linearGradient id="grad1_3" x1="43.8%" y1="0%" x2="100%" y2="100%"><stop offset="14.444444444444446%" stop-color="#00585e" stop-opacity="1"></stop><stop offset="85.55555555555554%" stop-color="#00334c" stop-opacity="1"></stop></linearGradient></defs><defs><linearGradient id="grad1_4" x1="43.8%" y1="0%" x2="100%" y2="100%"><stop offset="14.444444444444446%" stop-color="#001122" stop-opacity="1"></stop><stop offset="85.55555555555554%" stop-color="#00334c" stop-opacity="1"></stop></linearGradient></defs><defs><linearGradient id="grad2_0" x1="0%" y1="0%" x2="56.3%" y2="100%"><stop offset="14.444444444444446%" stop-color="#509c1d" stop-opacity="1"></stop><stop offset="85.55555555555554%" stop-color="#509c1d" stop-opacity="1"></stop></linearGradient></defs><defs><linearGradient id="grad2_1" x1="0%" y1="0%" x2="56.3%" y2="100%"><stop offset="14.444444444444446%" stop-color="#007d4f" stop-opacity="1"></stop><stop offset="85.55555555555554%" stop-color="#509c1d" stop-opacity="1"></stop></linearGradient></defs><defs><linearGradient id="grad2_2" x1="0%" y1="0%" x2="56.3%" y2="100%"><stop offset="14.444444444444446%" stop-color="#007d4f" stop-opacity="1"></stop><stop offset="85.55555555555554%" stop-color="#00585e" stop-opacity="1"></stop></linearGradient></defs><defs><linearGradient id="grad2_3" x1="0%" y1="0%" x2="56.3%" y2="100%"><stop offset="14.444444444444446%" stop-color="#00334c" stop-opacity="1"></stop><stop offset="85.55555555555554%" stop-color="#00585e" stop-opacity="1"></stop></linearGradient></defs><defs><linearGradient id="grad2_4" x1="0%" y1="0%" x2="56.3%" y2="100%"><stop offset="14.444444444444446%" stop-color="#00334c" stop-opacity="1"></stop><stop offset="85.55555555555554%" stop-color="#001122" stop-opacity="1"></stop></linearGradient></defs><g transform="translate(960, 0)"><path d="M0 405C-32.7 396.4 -65.3 387.7 -102.8 383.5C-140.2 379.2 -182.4 379.3 -202.5 350.7C-222.6 322.2 -220.5 265.1 -231.2 231.2C-242 197.4 -265.6 186.8 -294.4 170C-323.3 153.2 -357.4 130.3 -376.7 100.9C-396 71.6 -400.5 35.8 -405 0L0 0Z" fill="#002238"></path><path d="M0 324C-26.1 317.1 -52.2 310.2 -82.2 306.8C-112.2 303.4 -145.9 303.4 -162 280.6C-178.1 257.8 -176.4 212.1 -185 185C-193.6 157.9 -212.5 149.4 -235.6 136C-258.6 122.6 -285.9 104.2 -301.4 80.8C-316.8 57.3 -320.4 28.6 -324 0L0 0Z" fill="#004659"></path><path d="M0 243C-19.6 237.8 -39.2 232.6 -61.7 230.1C-84.1 227.5 -109.5 227.6 -121.5 210.4C-133.5 193.3 -132.3 159.1 -138.7 138.7C-145.2 118.4 -159.4 112.1 -176.7 102C-194 91.9 -214.4 78.2 -226 60.6C-237.6 42.9 -240.3 21.5 -243 0L0 0Z" fill="#006b5b"></path><path d="M0 162C-13.1 158.5 -26.1 155.1 -41.1 153.4C-56.1 151.7 -73 151.7 -81 140.3C-89 128.9 -88.2 106 -92.5 92.5C-96.8 78.9 -106.2 74.7 -117.8 68C-129.3 61.3 -143 52.1 -150.7 40.4C-158.4 28.6 -160.2 14.3 -162 0L0 0Z" fill="#008d3b"></path><path d="M0 81C-6.5 79.3 -13.1 77.5 -20.6 76.7C-28 75.8 -36.5 75.9 -40.5 70.1C-44.5 64.4 -44.1 53 -46.2 46.2C-48.4 39.5 -53.1 37.4 -58.9 34C-64.7 30.6 -71.5 26.1 -75.3 20.2C-79.2 14.3 -80.1 7.2 -81 0L0 0Z" fill="#509c1d"></path></g><g transform="translate(0, 540)"><path d="M0 -405C38 -407 76 -408.9 104.8 -391.2C133.6 -373.5 153.2 -336.1 183.5 -317.8C213.8 -299.6 255 -300.6 282.1 -282.1C309.3 -263.7 322.5 -225.9 332.6 -192C342.7 -158.1 349.7 -128.1 361.3 -96.8C372.8 -65.5 388.9 -32.7 405 0L0 0Z" fill="#002238"></path><path d="M0 -324C30.4 -325.6 60.8 -327.1 83.9 -313C106.9 -298.8 122.5 -268.8 146.8 -254.3C171.1 -239.7 204 -240.5 225.7 -225.7C247.4 -211 258 -180.7 266 -153.6C274.1 -126.5 279.8 -102.5 289 -77.4C298.3 -52.4 311.1 -26.2 324 0L0 0Z" fill="#004659"></path><path d="M0 -243C22.8 -244.2 45.6 -245.4 62.9 -234.7C80.2 -224.1 91.9 -201.6 110.1 -190.7C128.3 -179.8 153 -180.3 169.3 -169.3C185.6 -158.2 193.5 -135.5 199.5 -115.2C205.6 -94.9 209.8 -76.9 216.8 -58.1C223.7 -39.3 233.3 -19.6 243 0L0 0Z" fill="#006b5b"></path><path d="M0 -162C15.2 -162.8 30.4 -163.6 41.9 -156.5C53.4 -149.4 61.3 -134.4 73.4 -127.1C85.5 -119.8 102 -120.2 112.9 -112.9C123.7 -105.5 129 -90.4 133 -76.8C137.1 -63.2 139.9 -51.3 144.5 -38.7C149.1 -26.2 155.6 -13.1 162 0L0 0Z" fill="#008d3b"></path><path d="M0 -81C7.6 -81.4 15.2 -81.8 21 -78.2C26.7 -74.7 30.6 -67.2 36.7 -63.6C42.8 -59.9 51 -60.1 56.4 -56.4C61.9 -52.7 64.5 -45.2 66.5 -38.4C68.5 -31.6 69.9 -25.6 72.3 -19.4C74.6 -13.1 77.8 -6.5 81 0L0 0Z" fill="#509c1d"></path></g></svg>