<svg id="visual" viewBox="0 0 960 540" width="960" height="540" xmlns="http://www.w3.org/2000/svg" xmlns:xlink="http://www.w3.org/1999/xlink" version="1.1"><rect x="0" y="0" width="960" height="540" fill="#001122"></rect><defs><linearGradient id="grad1_0" x1="43.8%" y1="0%" x2="100%" y2="100%"><stop offset="14.444444444444446%" stop-color="#9c1d52" stop-opacity="1"></stop><stop offset="85.55555555555554%" stop-color="#9c1d52" stop-opacity="1"></stop></linearGradient></defs><defs><linearGradient id="grad1_1" x1="43.8%" y1="0%" x2="100%" y2="100%"><stop offset="14.444444444444446%" stop-color="#9c1d52" stop-opacity="1"></stop><stop offset="85.55555555555554%" stop-color="#70215a" stop-opacity="1"></stop></linearGradient></defs><defs><linearGradient id="grad1_2" x1="43.8%" y1="0%" x2="100%" y2="100%"><stop offset="14.444444444444446%" stop-color="#412353" stop-opacity="1"></stop><stop offset="85.55555555555554%" stop-color="#70215a" stop-opacity="1"></stop></linearGradient></defs><defs><linearGradient id="grad1_3" x1="43.8%" y1="0%" x2="100%" y2="100%"><stop offset="14.444444444444446%" stop-color="#412353" stop-opacity="1"></stop><stop offset="85.55555555555554%" stop-color="#181d3e" stop-opacity="1"></stop></linearGradient></defs><defs><linearGradient id="grad1_4" x1="43.8%" y1="0%" x2="100%" y2="100%"><stop offset="14.444444444444446%" stop-color="#001122" stop-opacity="1"></stop><stop offset="85.55555555555554%" stop-color="#181d3e" stop-opacity="1"></stop></linearGradient></defs><defs><linearGradient id="grad2_0" x1="0%" y1="0%" x2="56.3%" y2="100%"><stop offset="14.444444444444446%" stop-color="#9c1d52" stop-opacity="1"></stop><stop offset="85.55555555555554%" stop-color="#9c1d52" stop-opacity="1"></stop></linearGradient></defs><defs><linearGradient id="grad2_1" x1="0%" y1="0%" x2="56.3%" y2="100%"><stop offset="14.444444444444446%" stop-color="#70215a" stop-opacity="1"></stop><stop offset="85.55555555555554%" stop-color="#9c1d52" stop-opacity="1"></stop></linearGradient></defs><defs><linearGradient id="grad2_2" x1="0%" y1="0%" x2="56.3%" y2="100%"><stop offset="14.444444444444446%" stop-color="#70215a" stop-opacity="1"></stop><stop offset="85.55555555555554%" stop-color="#412353" stop-opacity="1"></stop></linearGradient></defs><defs><linearGradient id="grad2_3" x1="0%" y1="0%" x2="56.3%" y2="100%"><stop offset="14.444444444444446%" stop-color="#181d3e" stop-opacity="1"></stop><stop offset="85.55555555555554%" stop-color="#412353" stop-opacity="1"></stop></linearGradient></defs><defs><linearGradient id="grad2_4" x1="0%" y1="0%" x2="56.3%" y2="100%"><stop offset="14.444444444444446%" stop-color="#181d3e" stop-opacity="1"></stop><stop offset="85.55555555555554%" stop-color="#001122" stop-opacity="1"></stop></linearGradient></defs><g transform="translate(960, 0)"><path d="M0 351C-25.5 330.6 -51 310.3 -81.8 305.2C-112.6 300.2 -148.7 310.4 -170 294.4C-191.3 278.5 -197.7 236.3 -207.9 207.9C-218.1 179.5 -232.2 164.9 -258.1 149C-283.9 133.1 -321.6 115.9 -339 90.8C-356.5 65.8 -353.7 32.9 -351 0L0 0Z" fill="#091830"></path><path d="M0 280.8C-20.4 264.5 -40.8 248.2 -65.4 244.2C-90.1 240.1 -119 248.3 -136 235.6C-153 222.8 -158.1 189 -166.3 166.3C-174.5 143.6 -185.8 131.9 -206.5 119.2C-227.2 106.5 -257.3 92.7 -271.2 72.7C-285.2 52.6 -283 26.3 -280.8 0L0 0Z" fill="#2c214a"></path><path d="M0 210.6C-15.3 198.4 -30.6 186.2 -49.1 183.1C-67.6 180.1 -89.2 186.3 -102 176.7C-114.8 167.1 -118.6 141.8 -124.7 124.7C-130.9 107.7 -139.3 98.9 -154.8 89.4C-170.4 79.9 -193 69.5 -203.4 54.5C-213.9 39.5 -212.2 19.7 -210.6 0L0 0Z" fill="#582358"></path><path d="M0 140.4C-10.2 132.3 -20.4 124.1 -32.7 122.1C-45 120.1 -59.5 124.2 -68 117.8C-76.5 111.4 -79.1 94.5 -83.2 83.2C-87.3 71.8 -92.9 66 -103.2 59.6C-113.6 53.2 -128.6 46.4 -135.6 36.3C-142.6 26.3 -141.5 13.2 -140.4 0L0 0Z" fill="#871f58"></path><path d="M0 70.2C-5.1 66.1 -10.2 62.1 -16.4 61C-22.5 60 -29.7 62.1 -34 58.9C-38.3 55.7 -39.5 47.3 -41.6 41.6C-43.6 35.9 -46.4 33 -51.6 29.8C-56.8 26.6 -64.3 23.2 -67.8 18.2C-71.3 13.2 -70.7 6.6 -70.2 0L0 0Z" fill="#9c1d52"></path></g><g transform="translate(0, 540)"><path d="M0 -351C27.4 -330.5 54.8 -310 79.5 -296.5C104.2 -283.1 126.2 -276.8 158 -273.7C189.8 -270.5 231.5 -270.5 248.2 -248.2C264.9 -225.9 256.8 -181.3 260.7 -150.5C264.6 -119.7 280.4 -102.5 297.5 -79.7C314.6 -56.9 332.8 -28.5 351 0L0 0Z" fill="#091830"></path><path d="M0 -280.8C21.9 -264.4 43.8 -248 63.6 -237.2C83.3 -226.5 100.9 -221.5 126.4 -218.9C151.9 -216.4 185.2 -216.4 198.6 -198.6C212 -180.7 205.4 -145.1 208.5 -120.4C211.6 -95.7 224.4 -82 238 -63.8C251.7 -45.5 266.2 -22.8 280.8 0L0 0Z" fill="#2c214a"></path><path d="M0 -210.6C16.4 -198.3 32.9 -186 47.7 -177.9C62.5 -169.9 75.7 -166.1 94.8 -164.2C113.9 -162.3 138.9 -162.3 148.9 -148.9C159 -135.5 154.1 -108.8 156.4 -90.3C158.7 -71.8 168.3 -61.5 178.5 -47.8C188.7 -34.2 199.7 -17.1 210.6 0L0 0Z" fill="#582358"></path><path d="M0 -140.4C11 -132.2 21.9 -124 31.8 -118.6C41.7 -113.3 50.5 -110.7 63.2 -109.5C75.9 -108.2 92.6 -108.2 99.3 -99.3C106 -90.4 102.7 -72.5 104.3 -60.2C105.8 -47.9 112.2 -41 119 -31.9C125.8 -22.8 133.1 -11.4 140.4 0L0 0Z" fill="#871f58"></path><path d="M0 -70.2C5.5 -66.1 11 -62 15.9 -59.3C20.8 -56.6 25.2 -55.4 31.6 -54.7C38 -54.1 46.3 -54.1 49.6 -49.6C53 -45.2 51.4 -36.3 52.1 -30.1C52.9 -23.9 56.1 -20.5 59.5 -15.9C62.9 -11.4 66.6 -5.7 70.2 0L0 0Z" fill="#9c1d52"></path></g></svg>