<svg id="visual" viewBox="0 0 540 960" width="540" height="960" xmlns="http://www.w3.org/2000/svg" xmlns:xlink="http://www.w3.org/1999/xlink" version="1.1"><rect x="0" y="0" width="540" height="960" fill="#001220"></rect><defs><linearGradient id="grad1_0" x1="0%" y1="0%" x2="100%" y2="100%"><stop offset="30%" stop-color="#048128" stop-opacity="1"></stop><stop offset="70%" stop-color="#048128" stop-opacity="1"></stop></linearGradient></defs><defs><linearGradient id="grad1_1" x1="0%" y1="0%" x2="100%" y2="100%"><stop offset="30%" stop-color="#048128" stop-opacity="1"></stop><stop offset="70%" stop-color="#006749" stop-opacity="1"></stop></linearGradient></defs><defs><linearGradient id="grad1_2" x1="0%" y1="0%" x2="100%" y2="100%"><stop offset="30%" stop-color="#004a52" stop-opacity="1"></stop><stop offset="70%" stop-color="#006749" stop-opacity="1"></stop></linearGradient></defs><defs><linearGradient id="grad1_3" x1="0%" y1="0%" x2="100%" y2="100%"><stop offset="30%" stop-color="#004a52" stop-opacity="1"></stop><stop offset="70%" stop-color="#002d41" stop-opacity="1"></stop></linearGradient></defs><defs><linearGradient id="grad1_4" x1="0%" y1="0%" x2="100%" y2="100%"><stop offset="30%" stop-color="#001220" stop-opacity="1"></stop><stop offset="70%" stop-color="#002d41" stop-opacity="1"></stop></linearGradient></defs><defs><linearGradient id="grad2_0" x1="0%" y1="0%" x2="100%" y2="100%"><stop offset="30%" stop-color="#048128" stop-opacity="1"></stop><stop offset="70%" stop-color="#048128" stop-opacity="1"></stop></linearGradient></defs><defs><linearGradient id="grad2_1" x1="0%" y1="0%" x2="100%" y2="100%"><stop offset="30%" stop-color="#006749" stop-opacity="1"></stop><stop offset="70%" stop-color="#048128" stop-opacity="1"></stop></linearGradient></defs><defs><linearGradient id="grad2_2" x1="0%" y1="0%" x2="100%" y2="100%"><stop offset="30%" stop-color="#006749" stop-opacity="1"></stop><stop offset="70%" stop-color="#004a52" stop-opacity="1"></stop></linearGradient></defs><defs><linearGradient id="grad2_3" x1="0%" y1="0%" x2="100%" y2="100%"><stop offset="30%" stop-color="#002d41" stop-opacity="1"></stop><stop offset="70%" stop-color="#004a52" stop-opacity="1"></stop></linearGradient></defs><defs><linearGradient id="grad2_4" x1="0%" y1="0%" x2="100%" y2="100%"><stop offset="30%" stop-color="#002d41" stop-opacity="1"></stop><stop offset="70%" stop-color="#001220" stop-opacity="1"></stop></linearGradient></defs><g transform="translate(540, 0)"><path d="M0 324C-37 305.6 -74 287.1 -113.3 273.5C-152.5 259.8 -194 250.9 -227 227C-260 203.1 -284.6 164.3 -299.3 124C-314.1 83.7 -319.1 41.8 -324 0L0 0Z" fill="#001f32"></path><path d="M0 259.2C-29.6 244.5 -59.2 229.7 -90.6 218.8C-122 207.8 -155.2 200.7 -181.6 181.6C-208 162.5 -227.7 131.4 -239.5 99.2C-251.3 66.9 -255.2 33.5 -259.2 0L0 0Z" fill="#003b4d"></path><path d="M0 194.4C-22.2 183.3 -44.4 172.3 -68 164.1C-91.5 155.9 -116.4 150.5 -136.2 136.2C-156 121.9 -170.7 98.6 -179.6 74.4C-188.5 50.2 -191.4 25.1 -194.4 0L0 0Z" fill="#005951"></path><path d="M0 129.6C-14.8 122.2 -29.6 114.9 -45.3 109.4C-61 103.9 -77.6 100.3 -90.8 90.8C-104 81.2 -113.8 65.7 -119.7 49.6C-125.6 33.5 -127.6 16.7 -129.6 0L0 0Z" fill="#00743c"></path><path d="M0 64.8C-7.4 61.1 -14.8 57.4 -22.7 54.7C-30.5 52 -38.8 50.2 -45.4 45.4C-52 40.6 -56.9 32.9 -59.9 24.8C-62.8 16.7 -63.8 8.4 -64.8 0L0 0Z" fill="#048128"></path></g><g transform="translate(0, 960)"><path d="M0 -324C35 -294.6 70 -265.2 101.4 -244.8C132.8 -224.5 160.6 -213.3 196.6 -196.6C232.6 -179.9 276.7 -157.7 299.3 -124C321.9 -90.3 323 -45.2 324 0L0 0Z" fill="#001f32"></path><path d="M0 -259.2C28 -235.7 56 -212.1 81.1 -195.9C106.2 -179.6 128.5 -170.6 157.3 -157.3C186 -143.9 221.4 -126.1 239.5 -99.2C257.6 -72.2 258.4 -36.1 259.2 0L0 0Z" fill="#003b4d"></path><path d="M0 -194.4C21 -176.7 42 -159.1 60.8 -146.9C79.7 -134.7 96.4 -128 117.9 -117.9C139.5 -107.9 166 -94.6 179.6 -74.4C193.2 -54.2 193.8 -27.1 194.4 0L0 0Z" fill="#005951"></path><path d="M0 -129.6C14 -117.8 28 -106.1 40.6 -97.9C53.1 -89.8 64.2 -85.3 78.6 -78.6C93 -71.9 110.7 -63.1 119.7 -49.6C128.8 -36.1 129.2 -18.1 129.6 0L0 0Z" fill="#00743c"></path><path d="M0 -64.8C7 -58.9 14 -53 20.3 -49C26.6 -44.9 32.1 -42.7 39.3 -39.3C46.5 -36 55.3 -31.5 59.9 -24.8C64.4 -18.1 64.6 -9 64.8 0L0 0Z" fill="#048128"></path></g></svg>