<svg id="visual" viewBox="0 0 960 540" width="960" height="540" xmlns="http://www.w3.org/2000/svg" xmlns:xlink="http://www.w3.org/1999/xlink" version="1.1"><rect x="0" y="0" width="960" height="540" fill="#001122"></rect><defs><linearGradient id="grad1_0" x1="43.8%" y1="0%" x2="100%" y2="100%"><stop offset="14.444444444444446%" stop-color="#9c1d52" stop-opacity="1"></stop><stop offset="85.55555555555554%" stop-color="#9c1d52" stop-opacity="1"></stop></linearGradient></defs><defs><linearGradient id="grad1_1" x1="43.8%" y1="0%" x2="100%" y2="100%"><stop offset="14.444444444444446%" stop-color="#9c1d52" stop-opacity="1"></stop><stop offset="85.55555555555554%" stop-color="#70215a" stop-opacity="1"></stop></linearGradient></defs><defs><linearGradient id="grad1_2" x1="43.8%" y1="0%" x2="100%" y2="100%"><stop offset="14.444444444444446%" stop-color="#412353" stop-opacity="1"></stop><stop offset="85.55555555555554%" stop-color="#70215a" stop-opacity="1"></stop></linearGradient></defs><defs><linearGradient id="grad1_3" x1="43.8%" y1="0%" x2="100%" y2="100%"><stop offset="14.444444444444446%" stop-color="#412353" stop-opacity="1"></stop><stop offset="85.55555555555554%" stop-color="#181d3e" stop-opacity="1"></stop></linearGradient></defs><defs><linearGradient id="grad1_4" x1="43.8%" y1="0%" x2="100%" y2="100%"><stop offset="14.444444444444446%" stop-color="#001122" stop-opacity="1"></stop><stop offset="85.55555555555554%" stop-color="#181d3e" stop-opacity="1"></stop></linearGradient></defs><defs><linearGradient id="grad2_0" x1="0%" y1="0%" x2="56.3%" y2="100%"><stop offset="14.444444444444446%" stop-color="#9c1d52" stop-opacity="1"></stop><stop offset="85.55555555555554%" stop-color="#9c1d52" stop-opacity="1"></stop></linearGradient></defs><defs><linearGradient id="grad2_1" x1="0%" y1="0%" x2="56.3%" y2="100%"><stop offset="14.444444444444446%" stop-color="#70215a" stop-opacity="1"></stop><stop offset="85.55555555555554%" stop-color="#9c1d52" stop-opacity="1"></stop></linearGradient></defs><defs><linearGradient id="grad2_2" x1="0%" y1="0%" x2="56.3%" y2="100%"><stop offset="14.444444444444446%" stop-color="#70215a" stop-opacity="1"></stop><stop offset="85.55555555555554%" stop-color="#412353" stop-opacity="1"></stop></linearGradient></defs><defs><linearGradient id="grad2_3" x1="0%" y1="0%" x2="56.3%" y2="100%"><stop offset="14.444444444444446%" stop-color="#181d3e" stop-opacity="1"></stop><stop offset="85.55555555555554%" stop-color="#412353" stop-opacity="1"></stop></linearGradient></defs><defs><linearGradient id="grad2_4" x1="0%" y1="0%" x2="56.3%" y2="100%"><stop offset="14.444444444444446%" stop-color="#181d3e" stop-opacity="1"></stop><stop offset="85.55555555555554%" stop-color="#001122" stop-opacity="1"></stop></linearGradient></defs><g transform="translate(960, 0)"><path d="M0 486C-37.9 470.3 -75.8 454.6 -120.4 449.2C-164.9 443.7 -216.2 448.6 -243 420.9C-269.8 393.1 -272.1 332.8 -300.5 300.5C-328.9 268.3 -383.4 264.2 -413.1 238.5C-442.8 212.8 -447.9 165.5 -455.9 122.2C-464 78.8 -475 39.4 -486 0L0 0Z" fill="#091830"></path><path d="M0 388.8C-30.3 376.2 -60.6 363.7 -96.3 359.3C-131.9 355 -173 358.9 -194.4 336.7C-215.8 314.5 -217.7 266.2 -240.4 240.4C-263.1 214.6 -306.7 211.4 -330.5 190.8C-354.3 170.2 -358.3 132.4 -364.7 97.7C-371.2 63 -380 31.5 -388.8 0L0 0Z" fill="#2c214a"></path><path d="M0 291.6C-22.7 282.2 -45.5 272.7 -72.2 269.5C-99 266.2 -129.7 269.2 -145.8 252.5C-161.9 235.9 -163.3 199.7 -180.3 180.3C-197.3 161 -230 158.5 -247.9 143.1C-265.7 127.7 -268.7 99.3 -273.6 73.3C-278.4 47.3 -285 23.6 -291.6 0L0 0Z" fill="#582358"></path><path d="M0 194.4C-15.2 188.1 -30.3 181.8 -48.1 179.7C-66 177.5 -86.5 179.5 -97.2 168.4C-107.9 157.3 -108.9 133.1 -120.2 120.2C-131.6 107.3 -153.3 105.7 -165.2 95.4C-177.1 85.1 -179.2 66.2 -182.4 48.9C-185.6 31.5 -190 15.8 -194.4 0L0 0Z" fill="#871f58"></path><path d="M0 97.2C-7.6 94.1 -15.2 90.9 -24.1 89.8C-33 88.7 -43.2 89.7 -48.6 84.2C-54 78.6 -54.4 66.6 -60.1 60.1C-65.8 53.7 -76.7 52.8 -82.6 47.7C-88.6 42.6 -89.6 33.1 -91.2 24.4C-92.8 15.8 -95 7.9 -97.2 0L0 0Z" fill="#9c1d52"></path></g><g transform="translate(0, 540)"><path d="M0 -486C35.7 -454.5 71.4 -422.9 109.5 -408.6C147.5 -394.2 188 -397.1 219.5 -380.2C251 -363.3 273.6 -326.6 296.3 -296.3C318.9 -265.9 341.6 -242 374.1 -216C406.7 -190 449.1 -162.1 469.4 -125.8C489.7 -89.5 487.9 -44.7 486 0L0 0Z" fill="#091830"></path><path d="M0 -388.8C28.6 -363.6 57.1 -338.3 87.6 -326.9C118 -315.4 150.4 -317.7 175.6 -304.1C200.8 -290.6 218.9 -261.3 237 -237C255.1 -212.8 273.3 -193.6 299.3 -172.8C325.3 -152 359.3 -129.7 375.6 -100.6C391.8 -71.6 390.3 -35.8 388.8 0L0 0Z" fill="#2c214a"></path><path d="M0 -291.6C21.4 -272.7 42.8 -253.8 65.7 -245.2C88.5 -236.5 112.8 -238.3 131.7 -228.1C150.6 -218 164.2 -196 177.8 -177.8C191.3 -159.6 204.9 -145.2 224.5 -129.6C244 -114 269.5 -97.3 281.7 -75.5C293.8 -53.7 292.7 -26.8 291.6 0L0 0Z" fill="#582358"></path><path d="M0 -194.4C14.3 -181.8 28.6 -169.2 43.8 -163.4C59 -157.7 75.2 -158.8 87.8 -152.1C100.4 -145.3 109.5 -130.6 118.5 -118.5C127.6 -106.4 136.6 -96.8 149.6 -86.4C162.7 -76 179.7 -64.8 187.8 -50.3C195.9 -35.8 195.1 -17.9 194.4 0L0 0Z" fill="#871f58"></path><path d="M0 -97.2C7.1 -90.9 14.3 -84.6 21.9 -81.7C29.5 -78.8 37.6 -79.4 43.9 -76C50.2 -72.7 54.7 -65.3 59.3 -59.3C63.8 -53.2 68.3 -48.4 74.8 -43.2C81.3 -38 89.8 -32.4 93.9 -25.2C97.9 -17.9 97.6 -8.9 97.2 0L0 0Z" fill="#9c1d52"></path></g></svg>